@startuml
'https://plantuml.com/class-diagram

abstract class AbstractList
abstract AbstractCollection
interface List
interface Collection

List <|-- AbstractList
Collection <|-- AbstractCollection

Collection <|- List
AbstractCollection <|- AbstractList
AbstractList <|-- ArrayList




class ArrayList {
Object[] elementData
int size()
int getData(int a)

}

enum TimeUnit {
DAYS
fadsfasd
HOURS
MINUTES
}


class A
class B
A -|> B
@enduml